<?xml version="1.0" standalone="no"?>
<!DOCTYPE svg PUBLIC "-//W3C//DTD SVG 20010904//EN"
 "http://www.w3.org/TR/2001/REC-SVG-20010904/DTD/svg10.dtd">
<svg version="1.0" xmlns="http://www.w3.org/2000/svg"
 width="2485.000000pt" height="2485.000000pt" viewBox="0 0 2485.000000 2485.000000"
 preserveAspectRatio="xMidYMid meet">

<g transform="translate(0.000000,2485.000000) scale(0.100000,-0.100000)"
fill="#000000" stroke="none">
<path d="M12670 19008 c-87 -33 -192 -132 -264 -252 -11 -17 -36 -56 -55 -86
-20 -30 -52 -84 -70 -120 -19 -36 -42 -76 -51 -90 -10 -14 -21 -36 -25 -50 -4
-13 -30 -70 -56 -126 -27 -56 -49 -105 -49 -110 0 -5 -6 -21 -14 -36 -8 -14
-33 -82 -56 -150 -23 -67 -44 -125 -46 -127 -2 -2 -30 20 -62 50 -83 76 -169
149 -177 149 -4 0 -29 18 -55 40 -26 22 -51 40 -54 40 -4 0 -34 18 -67 40 -33
22 -63 40 -65 40 -3 0 -47 20 -97 44 -107 51 -188 79 -272 96 -33 7 -73 16
-89 21 -16 5 -104 9 -196 9 -144 0 -181 -3 -263 -24 -104 -27 -200 -60 -256
-88 -19 -10 -40 -18 -47 -18 -6 0 -17 -7 -24 -16 -8 -8 -27 -22 -44 -30 -45
-21 -73 -39 -94 -57 -10 -10 -23 -17 -29 -17 -5 0 -55 -45 -112 -100 -88 -86
-106 -100 -135 -100 -74 0 -136 -19 -188 -59 -89 -66 -138 -123 -175 -200 -34
-71 -36 -80 -36 -182 0 -106 0 -107 45 -200 55 -113 105 -164 206 -208 67 -29
77 -31 199 -31 122 1 131 2 188 30 33 17 65 30 71 30 14 0 98 96 138 158 29
46 56 149 56 220 0 42 0 42 38 42 43 0 69 -16 132 -81 62 -65 133 -181 160
-264 7 -20 18 -49 26 -63 8 -15 14 -31 14 -35 0 -4 9 -27 19 -50 11 -23 29
-78 41 -122 13 -44 36 -127 52 -184 16 -57 28 -104 26 -105 -2 -2 -32 -22 -68
-47 -194 -131 -433 -369 -610 -605 -19 -26 -49 -63 -65 -83 -17 -20 -36 -47
-43 -61 -21 -42 -38 -69 -55 -87 -23 -27 -83 -140 -165 -313 -61 -131 -78
-171 -97 -229 -10 -29 -24 -65 -31 -80 -8 -14 -14 -32 -14 -39 0 -8 -9 -46
-20 -85 -27 -102 -58 -235 -64 -282 -26 -186 -30 -249 -29 -515 0 -354 14
-499 67 -705 31 -118 53 -187 72 -224 8 -14 14 -34 14 -44 0 -11 16 -52 35
-93 19 -40 35 -76 35 -80 0 -13 85 -181 112 -221 15 -23 28 -46 28 -51 0 -5 7
-15 15 -22 9 -7 25 -32 36 -54 10 -23 29 -54 42 -71 12 -16 61 -81 108 -145
193 -257 473 -509 834 -749 61 -40 119 -80 130 -90 11 -9 31 -22 44 -29 13 -8
40 -23 60 -34 20 -12 61 -34 91 -51 30 -17 66 -38 80 -47 14 -9 61 -34 105
-55 44 -21 136 -66 205 -100 69 -33 141 -67 160 -75 19 -7 69 -29 110 -48 41
-19 97 -43 124 -54 27 -10 68 -27 90 -37 68 -31 388 -158 431 -171 93 -29 262
-99 410 -170 55 -26 127 -60 160 -75 144 -66 407 -199 483 -244 145 -87 284
-193 393 -301 58 -58 114 -118 125 -134 10 -16 27 -41 36 -55 20 -30 74 -124
93 -161 15 -27 67 -204 85 -287 15 -68 15 -340 -1 -407 -33 -145 -108 -336
-144 -366 -8 -7 -15 -17 -15 -22 0 -16 -39 -64 -125 -155 -166 -177 -386 -315
-625 -393 -88 -29 -120 -37 -240 -61 -230 -48 -578 -43 -815 11 -234 53 -372
98 -543 176 -29 13 -55 24 -59 24 -4 0 -14 7 -23 15 -8 8 -49 32 -90 53 -111
58 -192 103 -222 124 -14 10 -29 18 -32 18 -7 0 -177 108 -248 157 -124 86
-157 109 -213 151 -279 212 -353 267 -421 313 -43 29 -100 69 -128 91 -28 21
-56 38 -62 38 -6 0 -19 9 -29 20 -10 11 -22 20 -27 20 -4 0 -36 17 -71 38
-144 87 -453 220 -612 262 -113 30 -246 55 -380 72 -161 20 -468 12 -645 -17
-189 -31 -384 -88 -556 -165 -305 -136 -472 -254 -731 -519 -79 -80 -143 -151
-143 -157 0 -6 -9 -19 -21 -30 -19 -17 -81 -107 -150 -219 -32 -51 -91 -174
-119 -245 -12 -30 -28 -68 -36 -85 -7 -16 -34 -91 -59 -165 -43 -129 -45 -139
-45 -252 0 -140 10 -170 71 -220 88 -70 191 -87 291 -47 78 30 102 57 171 189
16 30 34 62 40 70 7 8 21 31 31 50 10 19 28 45 39 57 11 12 25 31 31 41 60
103 225 272 372 381 168 125 424 242 619 283 156 33 386 47 475 28 247 -51
349 -85 507 -166 85 -45 296 -179 349 -223 17 -14 58 -46 90 -71 32 -25 117
-99 188 -165 70 -66 150 -138 176 -160 27 -22 99 -83 162 -136 217 -183 404
-327 553 -427 44 -30 89 -63 101 -73 11 -11 24 -19 28 -19 4 0 27 -13 51 -30
24 -17 46 -30 50 -30 4 0 25 -13 48 -28 50 -34 337 -178 422 -212 33 -13 71
-30 84 -36 13 -7 108 -39 210 -72 172 -55 272 -81 426 -112 33 -6 69 -14 80
-17 21 -5 133 -17 310 -32 258 -22 671 -5 900 38 33 6 80 15 105 20 297 56
766 247 1030 420 231 151 544 446 697 656 29 40 129 189 161 240 14 22 34 53
45 69 21 31 97 180 97 190 0 4 16 40 35 80 19 41 35 78 35 83 0 4 6 20 14 34
25 49 81 238 115 389 5 25 13 56 16 70 7 27 19 110 36 260 15 121 15 433 1
570 -16 148 -39 279 -66 380 -8 30 -22 82 -30 115 -21 78 -57 187 -66 200 -4
6 -13 27 -19 47 -10 30 -74 159 -168 340 -8 15 -19 30 -24 34 -6 3 -14 16 -20
27 -11 27 -87 134 -170 240 -143 182 -419 429 -634 568 -22 14 -73 48 -114 75
-41 27 -81 54 -90 59 -9 6 -28 18 -44 28 -73 48 -503 262 -620 308 -28 11 -69
29 -92 39 -23 10 -66 29 -96 40 -30 12 -67 28 -84 35 -30 14 -385 145 -635
234 -155 56 -372 141 -445 176 -48 22 -94 43 -195 87 -321 140 -594 310 -802
499 -72 65 -168 178 -168 198 0 5 -7 14 -15 21 -21 17 -98 179 -128 270 -85
252 -91 318 -48 464 32 109 91 249 110 260 6 4 18 23 27 42 19 40 152 186 200
218 117 80 159 104 234 137 47 20 132 48 189 63 93 23 123 26 287 26 168 0
184 -1 184 -17 1 -10 9 -36 20 -58 11 -22 19 -44 20 -48 0 -11 47 -117 65
-147 8 -14 29 -53 45 -86 16 -34 37 -67 45 -74 8 -7 15 -16 15 -21 0 -8 28
-48 102 -141 18 -23 87 -98 153 -166 237 -244 456 -375 1108 -663 100 -44 201
-89 224 -100 24 -10 45 -19 47 -19 3 0 56 -24 118 -54 137 -65 248 -100 428
-132 71 -12 286 -16 338 -5 28 6 78 16 110 22 75 15 200 58 234 81 14 10 30
18 36 18 11 0 77 -72 139 -152 104 -133 159 -259 193 -443 10 -49 23 -111 41
-190 5 -22 14 -67 19 -100 29 -180 47 -210 129 -210 88 0 103 25 192 329 28
94 55 175 60 181 5 5 40 13 77 17 37 4 94 12 127 18 57 9 123 19 275 38 84 11
106 24 120 68 27 80 -9 158 -79 170 -64 11 -244 61 -516 142 l-60 18 -50 94
c-77 146 -124 216 -208 312 l-59 67 41 82 c38 76 49 111 81 259 13 60 9 247
-8 340 -24 134 -121 365 -232 555 -13 22 -46 83 -73 135 -87 167 -94 179 -104
192 -6 7 -50 90 -98 183 -91 177 -147 279 -179 330 -72 111 -156 237 -186 276
-19 25 -48 63 -65 85 -86 113 -271 299 -383 384 l-33 25 12 50 c33 137 151
489 192 575 6 14 24 44 39 67 15 23 28 46 28 51 0 5 9 17 20 27 11 10 20 24
20 31 0 7 26 35 57 63 40 36 65 51 85 51 27 0 28 -1 28 -57 0 -115 54 -237
138 -314 88 -80 237 -137 329 -126 152 19 226 49 308 126 100 93 135 175 135
322 0 142 -38 239 -128 328 -70 69 -157 113 -234 119 -58 4 -58 5 -145 94
-168 171 -375 284 -636 347 -26 6 -125 11 -220 11 -140 0 -189 -4 -262 -21
-102 -24 -302 -98 -385 -142 -30 -17 -67 -36 -81 -44 -15 -7 -32 -20 -39 -28
-7 -8 -18 -15 -25 -15 -6 0 -20 -9 -30 -20 -10 -11 -22 -20 -27 -20 -9 0 -38
-22 -159 -125 -124 -106 -140 -118 -142 -114 -2 2 -22 63 -46 134 -23 72 -53
153 -66 180 -14 28 -24 54 -25 60 0 16 -152 317 -182 362 -15 23 -28 45 -28
49 0 4 -18 31 -40 60 -22 29 -40 56 -40 59 0 11 -153 185 -163 185 -6 0 -20 8
-31 19 -67 60 -248 80 -356 39z m215 -118 c20 -11 40 -18 45 -15 4 3 10 -2 14
-10 3 -8 11 -15 19 -15 16 0 97 -79 97 -95 0 -6 18 -29 40 -50 22 -21 40 -44
40 -51 0 -6 7 -17 15 -24 8 -7 13 -16 10 -20 -2 -4 7 -17 20 -30 13 -13 22
-26 20 -30 -3 -4 2 -13 10 -20 8 -7 13 -16 10 -20 -2 -4 7 -18 20 -30 14 -13
25 -32 25 -42 0 -10 4 -18 9 -18 7 0 25 -43 18 -46 -1 0 5 -9 13 -18 8 -10 15
-25 17 -34 1 -9 7 -18 12 -20 6 -2 11 -12 11 -23 0 -10 5 -19 10 -19 6 0 10
-13 10 -30 0 -16 5 -30 10 -30 6 0 10 -9 10 -20 0 -11 5 -20 10 -20 6 0 10 -9
10 -20 0 -11 5 -20 10 -20 6 0 10 -13 10 -30 0 -16 5 -30 10 -30 6 0 10 -9 10
-19 0 -11 4 -22 9 -25 5 -3 9 -17 9 -32 0 -14 3 -29 8 -33 5 -3 11 -15 12 -26
2 -11 8 -24 13 -30 5 -5 9 -22 9 -37 0 -15 5 -28 10 -28 6 0 10 -13 10 -30 0
-16 5 -30 10 -30 6 0 10 -13 10 -30 0 -16 5 -30 10 -30 6 0 10 -11 10 -25 0
-23 4 -25 40 -25 38 0 47 6 141 100 56 55 105 100 110 100 5 0 25 16 45 35 19
19 38 35 43 35 4 0 17 8 29 18 56 47 105 79 135 89 9 3 17 9 17 14 0 5 4 9 10
9 5 0 32 14 60 30 28 17 57 30 65 30 8 0 15 4 15 8 0 5 23 15 50 22 28 7 50
17 50 22 0 4 9 8 20 8 11 0 20 5 20 10 0 6 15 10 34 10 19 0 37 4 40 9 10 16
246 44 291 34 17 -4 38 -6 48 -4 9 1 17 -3 17 -8 0 -6 -6 -11 -12 -11 -9 0 -8
-3 2 -10 12 -7 12 -12 2 -22 -29 -29 8 -40 40 -11 23 21 36 10 14 -13 -14 -13
-27 -15 -67 -10 l-49 7 1 -38 c1 -23 3 -29 6 -15 3 14 12 22 24 22 14 0 19 -7
19 -29 0 -24 5 -30 33 -37 l32 -8 -32 -3 c-27 -4 -33 -9 -33 -29 0 -13 6 -24
12 -24 7 0 2 -7 -10 -16 -33 -23 -72 -63 -72 -74 0 -6 7 -10 15 -10 8 0 15 -4
15 -10 0 -5 -9 -10 -20 -10 -11 0 -20 5 -20 10 0 15 -49 -22 -50 -36 0 -7 -7
-14 -15 -18 -17 -6 -21 -36 -5 -36 6 0 10 -4 10 -9 0 -5 -20 -14 -45 -20 -34
-9 -45 -16 -45 -31 0 -11 7 -20 15 -20 8 0 15 -4 15 -10 0 -5 -6 -10 -14 -10
-8 0 -18 -9 -21 -20 -8 -25 -41 -43 -67 -37 -26 7 -48 -2 -48 -20 0 -7 -11
-25 -24 -38 -14 -13 -27 -34 -31 -45 -7 -23 -59 -29 -69 -7 -5 10 -7 10 -12 0
-3 -7 -14 -13 -25 -13 -12 0 -19 -7 -19 -20 0 -13 -7 -20 -20 -20 -11 0 -20
-7 -20 -15 0 -22 -126 -145 -149 -145 -11 0 -22 -9 -26 -19 -3 -11 -19 -26
-35 -33 -17 -7 -30 -16 -30 -20 0 -5 -13 -8 -30 -8 -23 0 -30 -4 -30 -20 0
-14 -7 -20 -22 -21 -18 -1 -16 -3 10 -10 41 -12 46 -49 7 -49 -17 0 -25 -5
-25 -18 0 -10 -5 -23 -11 -29 -9 -9 -8 -18 5 -37 23 -35 21 -66 -4 -66 -14 0
-20 -7 -20 -22 0 -13 -5 -40 -11 -60 -9 -35 -13 -38 -45 -38 -34 0 -62 -29
-36 -38 22 -7 13 -22 -13 -22 -18 0 -25 -5 -25 -20 0 -16 -7 -20 -30 -20 -16
0 -30 -4 -30 -10 0 -5 5 -10 10 -10 6 0 10 -4 10 -10 0 -14 -27 -12 -33 3 -3
6 -6 2 -6 -10 -1 -16 -7 -23 -21 -23 -11 0 -20 -3 -20 -7 0 -9 -49 -33 -67
-33 -7 0 -13 -5 -13 -11 0 -23 -30 -41 -57 -34 -24 6 -25 5 -12 -12 8 -10 19
-21 24 -25 6 -4 -7 -8 -27 -8 -20 0 -40 5 -43 10 -3 6 -28 10 -56 10 -27 0
-49 -4 -49 -10 0 -5 18 -10 39 -10 22 0 43 -4 46 -10 3 -5 19 -10 35 -10 16 0
39 -4 52 -9 13 -5 43 -15 68 -21 420 -117 828 -341 1055 -581 179 -190 287
-360 542 -859 61 -118 142 -268 182 -332 39 -65 71 -120 71 -122 0 -3 13 -27
28 -53 16 -27 44 -87 62 -133 29 -74 33 -97 34 -180 0 -85 -2 -101 -26 -146
-90 -172 -343 -277 -560 -233 -115 23 -363 121 -646 255 -63 30 -116 54 -118
54 -9 0 -323 147 -409 192 -241 125 -470 318 -592 498 -52 78 -133 229 -133
249 0 6 -4 19 -9 29 -5 9 -14 35 -19 57 -6 22 -15 59 -21 81 -6 23 -11 54 -11
70 0 55 -40 105 -108 140 -147 73 -449 114 -706 95 -134 -10 -176 -16 -291
-41 -27 -6 -65 -14 -83 -17 -18 -3 -35 -9 -38 -14 -3 -5 -16 -9 -30 -9 -13 0
-32 -4 -42 -9 -16 -8 -47 -21 -94 -40 -102 -39 -297 -150 -356 -202 -50 -44
-30 -35 68 31 49 33 95 60 103 60 7 0 17 4 23 9 16 16 78 47 122 61 23 7 42
17 42 23 0 5 15 6 34 3 23 -5 36 -3 39 6 4 11 8 11 26 0 20 -12 21 -11 15 13
-6 23 -4 25 32 25 26 0 35 -3 25 -9 -11 -7 -10 -13 7 -31 14 -15 22 -18 27
-10 4 7 2 16 -6 20 -10 7 -10 11 1 25 13 15 15 15 22 -4 7 -21 38 -30 38 -11
0 6 7 10 15 10 8 0 15 5 15 12 0 6 3 9 6 6 11 -12 -16 -46 -46 -56 -16 -6 -30
-16 -30 -23 0 -6 -6 -9 -14 -6 -8 3 -17 -1 -20 -8 -4 -10 -14 -13 -36 -9 l-30
7 0 -52 c0 -39 4 -51 15 -51 10 0 15 10 15 30 0 25 4 30 25 30 37 0 34 -44 -5
-80 -35 -33 -37 -40 -10 -40 11 0 20 -7 20 -15 0 -8 8 -15 17 -15 13 0 14 -3
6 -11 -9 -9 -16 -8 -28 5 -9 9 -23 16 -31 16 -8 0 -14 11 -15 28 -1 19 -3 21
-6 7 -2 -11 -6 -30 -9 -42 -3 -17 -11 -23 -33 -23 -24 0 -30 -5 -34 -30 -6
-25 -11 -30 -37 -30 -16 0 -30 -4 -30 -10 0 -5 14 -10 30 -10 34 0 37 -5 15
-27 -10 -10 -24 -13 -40 -9 -22 6 -25 3 -25 -18 0 -14 5 -28 10 -31 13 -8 13
-35 0 -35 -6 0 -15 11 -20 25 -9 22 -13 24 -31 15 -15 -9 -19 -18 -15 -35 3
-13 2 -27 -4 -30 -19 -11 -10 -35 13 -36 22 0 22 0 -2 -10 -18 -7 -28 -6 -41
6 -22 20 -37 19 -50 -4 -5 -11 -20 -23 -31 -26 -16 -5 -18 -9 -9 -15 16 -10 6
-38 -17 -47 -30 -12 -53 -38 -44 -51 6 -10 12 -7 24 12 9 13 30 33 47 42 20
12 28 24 25 35 -6 17 18 49 36 49 5 0 9 -7 9 -15 0 -8 -5 -15 -11 -15 -5 0 -8
-4 -4 -9 7 -12 -154 -177 -169 -174 -6 2 -17 -6 -24 -17 -10 -17 -10 -20 4
-20 14 0 14 -2 -1 -17 -12 -11 -19 -13 -24 -5 -4 7 -12 8 -21 1 -13 -8 -13
-10 0 -19 8 -5 11 -10 5 -10 -5 0 -3 -5 5 -10 9 -6 10 -10 3 -10 -6 0 -19 7
-28 16 -14 14 -20 15 -41 4 -24 -14 -32 -30 -14 -30 6 0 10 -9 10 -20 0 -25
-18 -26 -36 -2 -9 11 -13 13 -14 4 0 -7 7 -20 15 -28 20 -21 19 -34 -4 -34
-30 0 -46 -26 -30 -47 12 -16 12 -17 -1 -6 -13 10 -20 6 -40 -20 -13 -18 -48
-55 -77 -83 -42 -40 -53 -58 -53 -83 0 -17 -4 -31 -10 -31 -5 0 -10 -9 -10
-20 0 -11 -4 -20 -10 -20 -5 0 -10 -13 -10 -30 0 -16 5 -30 10 -30 6 0 10 13
10 29 0 16 6 31 15 34 24 10 27 -9 8 -50 -19 -41 -36 -58 -41 -43 -8 22 -18 8
-19 -26 -1 -20 -5 -39 -10 -43 -4 -3 -8 -13 -8 -21 0 -8 -10 -16 -22 -18 -24
-3 -29 -26 -24 -94 1 -16 -3 -28 -8 -28 -6 0 -11 7 -11 16 0 8 -4 12 -10 9
-14 -8 -13 -42 1 -47 9 -3 9 -15 3 -43 -9 -35 -13 -40 -42 -43 -36 -4 -42 -17
-12 -27 11 -3 20 -11 20 -16 0 -5 -9 -9 -20 -9 -13 0 -20 -7 -20 -20 0 -13 7
-20 20 -20 11 0 20 -4 20 -8 0 -4 -9 -14 -20 -22 -11 -8 -20 -25 -20 -38 0
-19 -4 -23 -20 -19 -18 5 -20 0 -20 -49 0 -30 -4 -54 -10 -54 -5 0 -10 -7 -10
-15 0 -8 -4 -15 -10 -15 -5 0 -10 9 -10 20 0 11 5 20 10 20 6 0 10 9 10 20 0
13 -7 20 -20 20 -17 0 -20 -7 -20 -46 0 -41 -2 -45 -20 -39 -16 5 -20 2 -20
-19 0 -14 5 -26 10 -26 6 0 10 5 10 10 0 6 5 10 10 10 6 0 10 -9 10 -20 0 -11
-4 -20 -9 -20 -5 0 -12 -9 -16 -19 -3 -10 -16 -22 -30 -25 -26 -7 -57 -59 -48
-82 3 -8 18 -14 34 -14 27 0 29 -3 29 -40 0 -33 -3 -40 -19 -40 -11 0 -22 -8
-25 -17 -6 -18 -56 -29 -56 -12 0 5 -4 9 -10 9 -5 0 -10 -13 -10 -30 0 -23 -4
-30 -20 -30 -13 0 -20 -7 -20 -20 0 -19 -7 -20 -90 -20 -53 0 -90 4 -90 10 0
6 -7 10 -15 10 -8 0 -15 5 -15 11 0 8 -17 10 -49 7 -39 -4 -52 -1 -64 13 -9 9
-13 20 -10 23 4 3 -8 6 -25 6 -18 0 -32 -4 -32 -10 0 -5 9 -10 20 -10 11 0 20
-7 20 -15 0 -8 -5 -15 -11 -15 -7 0 -9 -11 -6 -28 4 -21 1 -31 -13 -40 -18
-11 -19 -10 -8 13 14 31 6 40 -22 25 -33 -18 -36 -4 -5 24 22 20 25 28 16 44
-7 14 -17 18 -31 15 -12 -3 -20 0 -20 8 0 7 -3 10 -6 7 -3 -4 -1 -15 5 -27 7
-12 7 -22 1 -26 -11 -7 -42 49 -33 59 4 3 1 6 -5 6 -7 0 -12 9 -12 20 0 11 -4
20 -10 20 -5 0 -10 11 -10 24 0 14 -4 28 -10 31 -5 3 -10 16 -10 29 0 12 -11
45 -25 72 -14 27 -28 65 -31 84 -3 19 -9 44 -14 55 -25 59 -68 294 -76 415 -3
47 -10 89 -15 95 -13 13 -12 412 1 420 6 3 10 52 10 111 0 63 4 104 10 104 6
0 10 27 10 60 0 33 4 60 10 60 6 0 10 18 10 40 0 22 5 40 10 40 6 0 10 18 10
40 0 22 5 40 10 40 6 0 10 13 10 29 0 17 5 33 10 36 6 3 10 19 10 36 0 16 5
29 10 29 6 0 10 11 10 24 0 14 5 28 10 31 6 3 10 17 10 30 0 13 5 27 10 30 6
3 10 15 10 26 0 10 5 19 10 19 6 0 10 14 10 30 0 17 5 30 10 30 6 0 10 9 10
20 0 11 5 20 10 20 6 0 10 9 10 20 0 11 5 20 10 20 6 0 10 7 10 15 0 17 18 52
38 73 7 7 10 18 7 23 -4 5 -1 9 4 9 6 0 11 9 11 20 0 11 5 20 10 20 6 0 10 9
10 20 0 10 8 23 17 29 10 5 15 13 11 16 -4 4 4 19 17 33 13 14 22 29 20 33 -3
4 2 12 10 19 8 7 15 18 15 25 0 6 9 20 20 30 11 10 18 21 15 25 -2 4 6 17 18
29 13 11 29 37 37 56 8 19 20 35 27 35 7 0 17 10 22 23 5 12 21 33 35 46 14
14 26 29 26 36 0 6 23 33 50 60 28 27 50 55 50 62 0 7 7 13 15 13 9 0 19 10
24 23 11 26 133 147 150 147 6 0 11 6 11 14 0 8 9 18 20 21 11 3 20 13 20 21
0 8 6 14 13 14 8 0 24 11 37 25 12 13 26 22 30 20 4 -3 14 3 21 12 8 9 39 34
69 56 30 23 57 44 58 49 2 4 14 8 27 8 37 0 50 26 51 107 1 53 -2 76 -12 80
-7 2 -10 11 -7 18 2 8 -2 24 -11 37 -9 12 -16 37 -16 55 0 17 -4 35 -10 38 -5
3 -10 21 -10 40 0 19 -4 37 -10 40 -5 3 -10 17 -10 31 0 13 -4 24 -9 24 -5 0
-11 14 -15 30 -3 17 -9 44 -12 60 -4 17 -10 30 -15 30 -5 0 -9 9 -9 19 0 11
-4 23 -10 26 -5 3 -10 17 -10 31 0 13 -4 24 -10 24 -5 0 -10 6 -10 13 0 15
-82 181 -92 185 -5 2 -8 10 -8 18 0 8 -13 29 -30 47 -16 18 -30 35 -30 39 0
16 -44 58 -61 58 -10 0 -19 4 -21 8 -1 4 -24 22 -49 40 l-45 33 -125 -3 -124
-3 -3 -39 c-2 -21 1 -43 7 -49 6 -6 11 -38 11 -71 0 -49 -7 -74 -35 -132 -19
-39 -46 -81 -60 -94 -14 -13 -25 -29 -25 -37 0 -7 -8 -13 -18 -13 -10 0 -42
-12 -71 -26 -50 -25 -59 -26 -156 -22 -87 5 -107 9 -126 27 -13 11 -26 21 -31
21 -13 0 -58 43 -58 55 0 6 -13 24 -30 40 -16 16 -30 38 -30 50 0 11 -5 26
-11 32 -7 7 -9 43 -6 99 7 117 9 130 35 157 12 13 22 27 22 33 1 16 49 64 65
64 8 0 15 7 15 15 0 9 12 18 30 22 17 3 30 11 30 18 0 16 45 25 120 25 l58 0
78 80 c43 44 84 80 91 80 7 0 13 7 13 15 0 9 11 20 24 25 13 5 27 13 30 19 4
6 22 18 41 27 19 9 35 20 35 25 0 5 6 9 13 9 8 0 22 9 32 20 10 11 28 20 40
20 12 0 31 9 43 20 12 11 35 20 53 20 22 0 32 5 36 20 5 17 14 20 59 20 29 0
56 5 59 10 3 6 15 10 26 10 10 0 19 5 19 10 0 6 77 10 210 10 133 0 210 -4
210 -10 0 -5 9 -10 19 -10 11 0 23 -4 26 -10 3 -5 26 -10 51 -10 24 0 44 -4
44 -10 0 -5 6 -10 14 -10 8 0 40 -13 71 -30 31 -16 70 -30 87 -30 21 0 31 -6
35 -20 3 -12 14 -20 28 -20 12 0 30 -9 40 -20 10 -11 23 -20 30 -20 7 0 20 -9
30 -20 10 -11 23 -20 30 -20 7 0 20 -9 30 -20 10 -11 23 -20 29 -20 7 0 32
-20 56 -45 24 -24 46 -42 50 -40 4 2 26 -16 50 -40 24 -25 49 -45 55 -45 14 0
130 -120 138 -142 4 -13 17 -18 41 -18 29 0 37 5 50 32 9 17 16 39 16 49 0 10
4 20 9 24 6 3 8 19 6 36 -2 20 1 32 11 36 8 3 14 16 14 29 0 13 9 39 20 59 11
20 20 44 20 55 0 10 5 22 10 25 6 3 10 17 10 31 0 13 5 24 10 24 6 0 10 9 10
19 0 11 5 23 10 26 6 3 10 15 10 26 0 10 5 19 10 19 6 0 10 8 10 19 0 10 18
53 40 96 22 43 40 84 40 91 0 8 5 14 10 14 6 0 10 9 10 20 0 11 5 20 10 20 6
0 10 9 10 20 0 11 4 20 8 20 5 0 20 21 33 48 13 26 27 49 32 50 4 2 7 12 7 23
0 10 5 19 10 19 6 0 10 6 10 13 0 6 14 28 30 47 16 19 30 41 30 48 0 6 5 12
10 12 6 0 10 6 10 14 0 18 138 157 153 155 13 -2 43 7 67 21 27 16 88 11 125
-10z m1935 -1030 c0 -5 -4 -10 -10 -10 -5 0 -10 5 -10 10 0 6 5 10 10 10 6 0
10 -4 10 -10z m-90 -30 c0 -5 -4 -10 -10 -10 -5 0 -10 5 -10 10 0 6 5 10 10
10 6 0 10 -4 10 -10z m-655 -620 c3 -5 -3 -10 -14 -10 -12 0 -21 5 -21 10 0 6
6 10 14 10 8 0 18 -4 21 -10z m-64 -103 c-8 -8 -11 -7 -11 4 0 9 3 19 7 23 4
4 9 2 11 -4 3 -7 -1 -17 -7 -23z m-31 -11 c0 -14 -29 -31 -37 -22 -6 6 19 35
30 36 4 0 7 -6 7 -14z m-180 -356 c0 -5 -7 -10 -15 -10 -8 0 -15 5 -15 10 0 6
7 10 15 10 8 0 15 -4 15 -10z m-30 -40 c0 -5 -9 -10 -20 -10 -11 0 -20 5 -20
10 0 6 9 10 20 10 11 0 20 -4 20 -10z m-193 -136 c-3 -3 -12 -4 -19 -1 -8 3
-5 6 6 6 11 1 17 -2 13 -5z m-1637 -1094 c0 -5 -4 -10 -10 -10 -5 0 -10 5 -10
10 0 6 5 10 10 10 6 0 10 -4 10 -10z m-93 -76 c-3 -3 -12 -4 -19 -1 -8 3 -5 6
6 6 11 1 17 -2 13 -5z m-657 -873 c0 -11 -39 -59 -40 -49 0 14 23 58 32 58 4
0 8 -4 8 -9z m-120 -136 c0 -5 -41 -70 -61 -98 -8 -11 -49 1 -49 14 0 12 61
74 81 82 19 7 29 8 29 2z m-174 -502 c-11 -11 -17 4 -9 23 7 18 8 18 11 1 2
-10 1 -21 -2 -24z m-96 -173 c0 -16 -4 -30 -10 -30 -5 0 -10 14 -10 30 0 17 5
30 10 30 6 0 10 -13 10 -30z m-209 -401 c-12 -12 -25 -19 -28 -16 -8 8 20 36
36 37 10 0 8 -7 -8 -21z m-87 -195 c9 -24 7 -27 -9 -10 -17 17 -19 26 -6 26 5
0 12 -7 15 -16z m-370 -40 c10 -25 -1 -29 -14 -5 -6 12 -7 21 -1 21 5 0 12 -7
15 -16z m166 -74 c0 -5 -8 -10 -17 -10 -15 0 -16 2 -3 10 19 12 20 12 20 0z
m220 0 c0 -5 -4 -10 -10 -10 -5 0 -10 5 -10 10 0 6 5 10 10 10 6 0 10 -4 10
-10z m-390 -15 c0 -8 -2 -15 -4 -15 -2 0 -6 7 -10 15 -3 8 -1 15 4 15 6 0 10
-7 10 -15z m-20 -25 c0 -5 -4 -10 -10 -10 -5 0 -10 5 -10 10 0 6 5 10 10 10 6
0 10 -4 10 -10z m-20 -40 c0 -5 -2 -10 -4 -10 -3 0 -8 5 -11 10 -3 6 -1 10 4
10 6 0 11 -4 11 -10z"/>
<path d="M14770 17995 c0 -8 9 -15 20 -15 11 0 20 7 20 15 0 8 -9 15 -20 15
-11 0 -20 -7 -20 -15z"/>
<path d="M14725 17960 c-4 -6 5 -10 19 -10 14 0 26 5 26 10 0 6 -9 10 -19 10
-11 0 -23 -4 -26 -10z"/>
<path d="M14520 17670 c0 -5 7 -10 15 -10 8 0 15 5 15 10 0 6 -7 10 -15 10 -8
0 -15 -4 -15 -10z"/>
<path d="M14388 17598 c-33 -36 -36 -58 -8 -58 14 0 22 11 30 41 6 23 10 42 8
44 -2 2 -15 -11 -30 -27z"/>
<path d="M14120 17365 c0 -8 5 -15 10 -15 6 0 10 7 10 15 0 8 -4 15 -10 15 -5
0 -10 -7 -10 -15z"/>
<path d="M13892 17160 c0 -14 2 -19 5 -12 2 6 2 18 0 25 -3 6 -5 1 -5 -13z"/>
<path d="M13851 17024 c0 -11 3 -14 6 -6 3 7 2 16 -1 19 -3 4 -6 -2 -5 -13z"/>
<path d="M12598 16663 c61 -2 163 -2 225 0 61 1 11 3 -113 3 -124 0 -174 -2
-112 -3z"/>
<path d="M12949 16647 c4 -4 41 -7 82 -5 l74 3 -82 5 c-45 3 -78 1 -74 -3z"/>
<path d="M12333 16643 c15 -2 39 -2 55 0 15 2 2 4 -28 4 -30 0 -43 -2 -27 -4z"/>
<path d="M13131 16631 c-10 -6 5 -11 45 -15 32 -3 84 -8 114 -11 39 -4 51 -3
40 4 -8 6 -29 11 -47 11 -17 0 -35 5 -38 10 -8 12 -95 13 -114 1z"/>
<path d="M12208 16623 c12 -2 32 -2 45 0 12 2 2 4 -23 4 -25 0 -35 -2 -22 -4z"/>
<path d="M12123 16603 c9 -2 25 -2 35 0 9 3 1 5 -18 5 -19 0 -27 -2 -17 -5z"/>
<path d="M12053 16583 c9 -2 23 -2 30 0 6 3 -1 5 -18 5 -16 0 -22 -2 -12 -5z"/>
<path d="M11988 16563 c7 -3 16 -2 19 1 4 3 -2 6 -13 5 -11 0 -14 -3 -6 -6z"/>
<path d="M11923 16543 c9 -2 23 -2 30 0 6 3 -1 5 -18 5 -16 0 -22 -2 -12 -5z"/>
<path d="M11878 16523 c7 -3 16 -2 19 1 4 3 -2 6 -13 5 -11 0 -14 -3 -6 -6z"/>
<path d="M11838 16503 c7 -3 16 -2 19 1 4 3 -2 6 -13 5 -11 0 -14 -3 -6 -6z"/>
<path d="M11710 15450 c0 -5 5 -10 10 -10 6 0 10 5 10 10 0 6 -4 10 -10 10 -5
0 -10 -4 -10 -10z"/>
<path d="M11670 15420 c0 -5 7 -10 16 -10 8 0 12 5 9 10 -3 6 -10 10 -16 10
-5 0 -9 -4 -9 -10z"/>
<path d="M11042 15340 c0 -14 2 -19 5 -12 2 6 2 18 0 25 -3 6 -5 1 -5 -13z"/>
<path d="M14108 15325 c-162 -85 -184 -308 -43 -450 112 -113 280 -116 393 -6
53 52 75 103 80 187 4 62 1 78 -24 128 -53 110 -149 166 -279 165 -65 0 -89
-5 -127 -24z"/>
<path d="M11195 15220 c-3 -5 1 -10 10 -10 9 0 13 5 10 10 -3 6 -8 10 -10 10
-2 0 -7 -4 -10 -10z"/>
<path d="M11023 15155 c0 -27 2 -38 4 -22 2 15 2 37 0 50 -2 12 -4 0 -4 -28z"/>
<path d="M11140 15165 c-19 -19 -31 -35 -27 -35 4 0 23 16 43 35 19 19 31 35
26 35 -4 0 -23 -16 -42 -35z"/>
<path d="M11290 14795 c0 -8 5 -15 10 -15 6 0 10 -7 10 -15 0 -18 17 -20 22
-3 2 6 -4 20 -14 30 -22 22 -28 23 -28 3z"/>
<path d="M11271 14764 c0 -11 3 -14 6 -6 3 7 2 16 -1 19 -3 4 -6 -2 -5 -13z"/>
<path d="M11240 14716 c0 -8 4 -17 9 -20 5 -4 7 3 4 14 -6 23 -13 26 -13 6z"/>
<path d="M10800 14090 c0 -5 9 -10 20 -10 11 0 20 5 20 10 0 6 -9 10 -20 10
-11 0 -20 -4 -20 -10z"/>
<path d="M10626 13631 c-4 -7 -5 -15 -2 -18 9 -9 19 4 14 18 -4 11 -6 11 -12
0z"/>
<path d="M10487 13376 c-15 -12 -15 -46 0 -46 11 0 33 30 33 44 0 19 -9 20
-33 2z"/>
<path d="M9955 13300 c3 -5 11 -10 16 -10 6 0 7 5 4 10 -3 6 -11 10 -16 10 -6
0 -7 -4 -4 -10z"/>
<path d="M10036 13211 c-4 -7 -5 -15 -2 -18 9 -9 19 4 14 18 -4 11 -6 11 -12
0z"/>
<path d="M9960 13200 c0 -5 7 -10 15 -10 8 0 15 5 15 10 0 6 -7 10 -15 10 -8
0 -15 -4 -15 -10z"/>
</g>
</svg>
